# xmcd
#
# Track frame offsets: 
#        150
#        11835
#        23065
#        34225
#        45207
#        57772
#        70130
#        83620
#        96850
#        110482
#        122277
#        133240
#        145640
#        157430
#        169990
#        181162
#        194117
#        206100
#        218097
#        229555
#        242105
#        254515
#        267307
#        279845
#
# Disc length: 3892 seconds
#
# Revision: 2
# Processed by: cddbd v1.5.2PL0 Copyright (c) Steve Scherf et al.
# Submitted via: ExactAudioCopy v0.95b4
#
DISCID=590f3218
DTITLE=Hank Williams Sr. - 24 Greatest Hits Vol. 2
DYEAR=1993
DGENRE=Country
TTITLE0=My Bucket's Got A Hole In It
TTITLE1=Crazy Heart
TTITLE2=I'll Never Get Out Of This World Alive
TTITLE3=Moanin' The Blues
TTITLE4=I Could Never Be Ashamed Of You
TTITLE5=Lost Highway
TTITLE6=You're Gonna Change (Or I'm Gonna Leave)
TTITLE7=A House Without Love
TTITLE8=I'd Still Want You
TTITLE9=Dear John
TTITLE10=Let's Turn Back The Years
TTITLE11=Howlin' At The Moon
TTITLE12=A Mansion On The Hill
TTITLE13=I Saw The Light
TTITLE14=(I Heard That) Lonesome Whistle
TTITLE15=I'm A Long Gone Daddy
TTITLE16=Why Should We Try Anymore
TTITLE17=Long Gone Lonesome Blues
TTITLE18=Nobody's Lonesome For Me
TTITLE19=They'll Never Take Her Love From Me
TTITLE20=My Sweet Love Ain't Around
TTITLE21=I Just Don't Like This Kind Of Livin'
TTITLE22=I Won't Be Home No More
TTITLE23=I'm Sorry For You My Friend
EXTD=
EXTT0=
EXTT1=
EXTT2=
EXTT3=
EXTT4=
EXTT5=
EXTT6=
EXTT7=
EXTT8=
EXTT9=
EXTT10=
EXTT11=
EXTT12=
EXTT13=
EXTT14=
EXTT15=
EXTT16=
EXTT17=
EXTT18=
EXTT19=
EXTT20=
EXTT21=
EXTT22=
EXTT23=
PLAYORDER=
